<mxfile host="app.diagrams.net" modified="2024-07-04T08:35:12.829Z" agent="Mozilla/5.0 (Windows NT 10.0; Win64; x64) AppleWebKit/537.36 (KHTML, like Gecko) Chrome/126.0.0.0 Safari/537.36" etag="-J17h6i2w6087Cwlcz2T" version="24.6.4" type="github">
  <diagram id="R2lEEEUBdFMjLlhIrx00" name="Page-1">
    <mxGraphModel dx="1221" dy="654" grid="0" gridSize="10" guides="1" tooltips="1" connect="1" arrows="1" fold="1" page="1" pageScale="1" pageWidth="850" pageHeight="1100" math="0" shadow="0" extFonts="Permanent Marker^https://fonts.googleapis.com/css?family=Permanent+Marker">
      <root>
        <mxCell id="0" />
        <mxCell id="1" parent="0" />
        <mxCell id="qHvsJnLVXE3Juq46e4E1-33" value="MOVIE" style="shape=table;startSize=25;container=1;collapsible=0;childLayout=tableLayout;fixedRows=1;rowLines=1;fontStyle=1;align=center;resizeLast=1;" vertex="1" parent="1">
          <mxGeometry x="127" y="443" width="139" height="179" as="geometry" />
        </mxCell>
        <mxCell id="qHvsJnLVXE3Juq46e4E1-34" style="shape=tableRow;horizontal=0;startSize=0;swimlaneHead=0;swimlaneBody=0;fillColor=none;collapsible=0;dropTarget=0;points=[[0,0.5],[1,0.5]];portConstraint=eastwest;top=0;left=0;right=0;bottom=0;" vertex="1" parent="qHvsJnLVXE3Juq46e4E1-33">
          <mxGeometry y="25" width="139" height="22" as="geometry" />
        </mxCell>
        <mxCell id="qHvsJnLVXE3Juq46e4E1-35" value="int" style="shape=partialRectangle;connectable=0;fillColor=none;top=0;left=0;bottom=0;right=0;align=left;spacingLeft=2;overflow=hidden;fontSize=11;" vertex="1" parent="qHvsJnLVXE3Juq46e4E1-34">
          <mxGeometry width="36" height="22" as="geometry">
            <mxRectangle width="36" height="22" as="alternateBounds" />
          </mxGeometry>
        </mxCell>
        <mxCell id="qHvsJnLVXE3Juq46e4E1-36" value="movie_ID" style="shape=partialRectangle;connectable=0;fillColor=none;top=0;left=0;bottom=0;right=0;align=left;spacingLeft=2;overflow=hidden;fontSize=11;" vertex="1" parent="qHvsJnLVXE3Juq46e4E1-34">
          <mxGeometry x="36" width="103" height="22" as="geometry">
            <mxRectangle width="103" height="22" as="alternateBounds" />
          </mxGeometry>
        </mxCell>
        <mxCell id="qHvsJnLVXE3Juq46e4E1-37" style="shape=tableRow;horizontal=0;startSize=0;swimlaneHead=0;swimlaneBody=0;fillColor=none;collapsible=0;dropTarget=0;points=[[0,0.5],[1,0.5]];portConstraint=eastwest;top=0;left=0;right=0;bottom=0;" vertex="1" parent="qHvsJnLVXE3Juq46e4E1-33">
          <mxGeometry y="47" width="139" height="22" as="geometry" />
        </mxCell>
        <mxCell id="qHvsJnLVXE3Juq46e4E1-38" value="string" style="shape=partialRectangle;connectable=0;fillColor=none;top=0;left=0;bottom=0;right=0;align=left;spacingLeft=2;overflow=hidden;fontSize=11;" vertex="1" parent="qHvsJnLVXE3Juq46e4E1-37">
          <mxGeometry width="36" height="22" as="geometry">
            <mxRectangle width="36" height="22" as="alternateBounds" />
          </mxGeometry>
        </mxCell>
        <mxCell id="qHvsJnLVXE3Juq46e4E1-39" value="title" style="shape=partialRectangle;connectable=0;fillColor=none;top=0;left=0;bottom=0;right=0;align=left;spacingLeft=2;overflow=hidden;fontSize=11;" vertex="1" parent="qHvsJnLVXE3Juq46e4E1-37">
          <mxGeometry x="36" width="103" height="22" as="geometry">
            <mxRectangle width="103" height="22" as="alternateBounds" />
          </mxGeometry>
        </mxCell>
        <mxCell id="qHvsJnLVXE3Juq46e4E1-40" style="shape=tableRow;horizontal=0;startSize=0;swimlaneHead=0;swimlaneBody=0;fillColor=none;collapsible=0;dropTarget=0;points=[[0,0.5],[1,0.5]];portConstraint=eastwest;top=0;left=0;right=0;bottom=0;" vertex="1" parent="qHvsJnLVXE3Juq46e4E1-33">
          <mxGeometry y="69" width="139" height="22" as="geometry" />
        </mxCell>
        <mxCell id="qHvsJnLVXE3Juq46e4E1-41" value="string" style="shape=partialRectangle;connectable=0;fillColor=none;top=0;left=0;bottom=0;right=0;align=left;spacingLeft=2;overflow=hidden;fontSize=11;" vertex="1" parent="qHvsJnLVXE3Juq46e4E1-40">
          <mxGeometry width="36" height="22" as="geometry">
            <mxRectangle width="36" height="22" as="alternateBounds" />
          </mxGeometry>
        </mxCell>
        <mxCell id="qHvsJnLVXE3Juq46e4E1-42" value="type" style="shape=partialRectangle;connectable=0;fillColor=none;top=0;left=0;bottom=0;right=0;align=left;spacingLeft=2;overflow=hidden;fontSize=11;" vertex="1" parent="qHvsJnLVXE3Juq46e4E1-40">
          <mxGeometry x="36" width="103" height="22" as="geometry">
            <mxRectangle width="103" height="22" as="alternateBounds" />
          </mxGeometry>
        </mxCell>
        <mxCell id="qHvsJnLVXE3Juq46e4E1-43" style="shape=tableRow;horizontal=0;startSize=0;swimlaneHead=0;swimlaneBody=0;fillColor=none;collapsible=0;dropTarget=0;points=[[0,0.5],[1,0.5]];portConstraint=eastwest;top=0;left=0;right=0;bottom=0;" vertex="1" parent="qHvsJnLVXE3Juq46e4E1-33">
          <mxGeometry y="91" width="139" height="22" as="geometry" />
        </mxCell>
        <mxCell id="qHvsJnLVXE3Juq46e4E1-44" value="int" style="shape=partialRectangle;connectable=0;fillColor=none;top=0;left=0;bottom=0;right=0;align=left;spacingLeft=2;overflow=hidden;fontSize=11;" vertex="1" parent="qHvsJnLVXE3Juq46e4E1-43">
          <mxGeometry width="36" height="22" as="geometry">
            <mxRectangle width="36" height="22" as="alternateBounds" />
          </mxGeometry>
        </mxCell>
        <mxCell id="qHvsJnLVXE3Juq46e4E1-45" value="runtime" style="shape=partialRectangle;connectable=0;fillColor=none;top=0;left=0;bottom=0;right=0;align=left;spacingLeft=2;overflow=hidden;fontSize=11;" vertex="1" parent="qHvsJnLVXE3Juq46e4E1-43">
          <mxGeometry x="36" width="103" height="22" as="geometry">
            <mxRectangle width="103" height="22" as="alternateBounds" />
          </mxGeometry>
        </mxCell>
        <mxCell id="qHvsJnLVXE3Juq46e4E1-46" style="shape=tableRow;horizontal=0;startSize=0;swimlaneHead=0;swimlaneBody=0;fillColor=none;collapsible=0;dropTarget=0;points=[[0,0.5],[1,0.5]];portConstraint=eastwest;top=0;left=0;right=0;bottom=0;" vertex="1" parent="qHvsJnLVXE3Juq46e4E1-33">
          <mxGeometry y="113" width="139" height="22" as="geometry" />
        </mxCell>
        <mxCell id="qHvsJnLVXE3Juq46e4E1-47" value="date" style="shape=partialRectangle;connectable=0;fillColor=none;top=0;left=0;bottom=0;right=0;align=left;spacingLeft=2;overflow=hidden;fontSize=11;" vertex="1" parent="qHvsJnLVXE3Juq46e4E1-46">
          <mxGeometry width="36" height="22" as="geometry">
            <mxRectangle width="36" height="22" as="alternateBounds" />
          </mxGeometry>
        </mxCell>
        <mxCell id="qHvsJnLVXE3Juq46e4E1-48" value="release_date" style="shape=partialRectangle;connectable=0;fillColor=none;top=0;left=0;bottom=0;right=0;align=left;spacingLeft=2;overflow=hidden;fontSize=11;" vertex="1" parent="qHvsJnLVXE3Juq46e4E1-46">
          <mxGeometry x="36" width="103" height="22" as="geometry">
            <mxRectangle width="103" height="22" as="alternateBounds" />
          </mxGeometry>
        </mxCell>
        <mxCell id="qHvsJnLVXE3Juq46e4E1-49" style="shape=tableRow;horizontal=0;startSize=0;swimlaneHead=0;swimlaneBody=0;fillColor=none;collapsible=0;dropTarget=0;points=[[0,0.5],[1,0.5]];portConstraint=eastwest;top=0;left=0;right=0;bottom=0;" vertex="1" parent="qHvsJnLVXE3Juq46e4E1-33">
          <mxGeometry y="135" width="139" height="22" as="geometry" />
        </mxCell>
        <mxCell id="qHvsJnLVXE3Juq46e4E1-50" value="string" style="shape=partialRectangle;connectable=0;fillColor=none;top=0;left=0;bottom=0;right=0;align=left;spacingLeft=2;overflow=hidden;fontSize=11;" vertex="1" parent="qHvsJnLVXE3Juq46e4E1-49">
          <mxGeometry width="36" height="22" as="geometry">
            <mxRectangle width="36" height="22" as="alternateBounds" />
          </mxGeometry>
        </mxCell>
        <mxCell id="qHvsJnLVXE3Juq46e4E1-51" value="director" style="shape=partialRectangle;connectable=0;fillColor=none;top=0;left=0;bottom=0;right=0;align=left;spacingLeft=2;overflow=hidden;fontSize=11;" vertex="1" parent="qHvsJnLVXE3Juq46e4E1-49">
          <mxGeometry x="36" width="103" height="22" as="geometry">
            <mxRectangle width="103" height="22" as="alternateBounds" />
          </mxGeometry>
        </mxCell>
        <mxCell id="qHvsJnLVXE3Juq46e4E1-52" style="shape=tableRow;horizontal=0;startSize=0;swimlaneHead=0;swimlaneBody=0;fillColor=none;collapsible=0;dropTarget=0;points=[[0,0.5],[1,0.5]];portConstraint=eastwest;top=0;left=0;right=0;bottom=0;" vertex="1" parent="qHvsJnLVXE3Juq46e4E1-33">
          <mxGeometry y="157" width="139" height="22" as="geometry" />
        </mxCell>
        <mxCell id="qHvsJnLVXE3Juq46e4E1-53" value="string" style="shape=partialRectangle;connectable=0;fillColor=none;top=0;left=0;bottom=0;right=0;align=left;spacingLeft=2;overflow=hidden;fontSize=11;" vertex="1" parent="qHvsJnLVXE3Juq46e4E1-52">
          <mxGeometry width="36" height="22" as="geometry">
            <mxRectangle width="36" height="22" as="alternateBounds" />
          </mxGeometry>
        </mxCell>
        <mxCell id="qHvsJnLVXE3Juq46e4E1-54" value="starring" style="shape=partialRectangle;connectable=0;fillColor=none;top=0;left=0;bottom=0;right=0;align=left;spacingLeft=2;overflow=hidden;fontSize=11;" vertex="1" parent="qHvsJnLVXE3Juq46e4E1-52">
          <mxGeometry x="36" width="103" height="22" as="geometry">
            <mxRectangle width="103" height="22" as="alternateBounds" />
          </mxGeometry>
        </mxCell>
        <mxCell id="qHvsJnLVXE3Juq46e4E1-55" value="CUSTOMER" style="shape=table;startSize=25;container=1;collapsible=0;childLayout=tableLayout;fixedRows=1;rowLines=1;fontStyle=1;align=center;resizeLast=1;" vertex="1" parent="1">
          <mxGeometry x="596" y="252" width="104" height="91" as="geometry" />
        </mxCell>
        <mxCell id="qHvsJnLVXE3Juq46e4E1-56" style="shape=tableRow;horizontal=0;startSize=0;swimlaneHead=0;swimlaneBody=0;fillColor=none;collapsible=0;dropTarget=0;points=[[0,0.5],[1,0.5]];portConstraint=eastwest;top=0;left=0;right=0;bottom=0;" vertex="1" parent="qHvsJnLVXE3Juq46e4E1-55">
          <mxGeometry y="25" width="104" height="22" as="geometry" />
        </mxCell>
        <mxCell id="qHvsJnLVXE3Juq46e4E1-57" value="int" style="shape=partialRectangle;connectable=0;fillColor=none;top=0;left=0;bottom=0;right=0;align=left;spacingLeft=2;overflow=hidden;fontSize=11;" vertex="1" parent="qHvsJnLVXE3Juq46e4E1-56">
          <mxGeometry width="36" height="22" as="geometry">
            <mxRectangle width="36" height="22" as="alternateBounds" />
          </mxGeometry>
        </mxCell>
        <mxCell id="qHvsJnLVXE3Juq46e4E1-58" value="c_ID" style="shape=partialRectangle;connectable=0;fillColor=none;top=0;left=0;bottom=0;right=0;align=left;spacingLeft=2;overflow=hidden;fontSize=11;" vertex="1" parent="qHvsJnLVXE3Juq46e4E1-56">
          <mxGeometry x="36" width="68" height="22" as="geometry">
            <mxRectangle width="68" height="22" as="alternateBounds" />
          </mxGeometry>
        </mxCell>
        <mxCell id="qHvsJnLVXE3Juq46e4E1-59" style="shape=tableRow;horizontal=0;startSize=0;swimlaneHead=0;swimlaneBody=0;fillColor=none;collapsible=0;dropTarget=0;points=[[0,0.5],[1,0.5]];portConstraint=eastwest;top=0;left=0;right=0;bottom=0;" vertex="1" parent="qHvsJnLVXE3Juq46e4E1-55">
          <mxGeometry y="47" width="104" height="22" as="geometry" />
        </mxCell>
        <mxCell id="qHvsJnLVXE3Juq46e4E1-60" value="string" style="shape=partialRectangle;connectable=0;fillColor=none;top=0;left=0;bottom=0;right=0;align=left;spacingLeft=2;overflow=hidden;fontSize=11;" vertex="1" parent="qHvsJnLVXE3Juq46e4E1-59">
          <mxGeometry width="36" height="22" as="geometry">
            <mxRectangle width="36" height="22" as="alternateBounds" />
          </mxGeometry>
        </mxCell>
        <mxCell id="qHvsJnLVXE3Juq46e4E1-61" value="name" style="shape=partialRectangle;connectable=0;fillColor=none;top=0;left=0;bottom=0;right=0;align=left;spacingLeft=2;overflow=hidden;fontSize=11;" vertex="1" parent="qHvsJnLVXE3Juq46e4E1-59">
          <mxGeometry x="36" width="68" height="22" as="geometry">
            <mxRectangle width="68" height="22" as="alternateBounds" />
          </mxGeometry>
        </mxCell>
        <mxCell id="qHvsJnLVXE3Juq46e4E1-62" style="shape=tableRow;horizontal=0;startSize=0;swimlaneHead=0;swimlaneBody=0;fillColor=none;collapsible=0;dropTarget=0;points=[[0,0.5],[1,0.5]];portConstraint=eastwest;top=0;left=0;right=0;bottom=0;" vertex="1" parent="qHvsJnLVXE3Juq46e4E1-55">
          <mxGeometry y="69" width="104" height="22" as="geometry" />
        </mxCell>
        <mxCell id="qHvsJnLVXE3Juq46e4E1-63" value="string" style="shape=partialRectangle;connectable=0;fillColor=none;top=0;left=0;bottom=0;right=0;align=left;spacingLeft=2;overflow=hidden;fontSize=11;" vertex="1" parent="qHvsJnLVXE3Juq46e4E1-62">
          <mxGeometry width="36" height="22" as="geometry">
            <mxRectangle width="36" height="22" as="alternateBounds" />
          </mxGeometry>
        </mxCell>
        <mxCell id="qHvsJnLVXE3Juq46e4E1-64" value="phone" style="shape=partialRectangle;connectable=0;fillColor=none;top=0;left=0;bottom=0;right=0;align=left;spacingLeft=2;overflow=hidden;fontSize=11;" vertex="1" parent="qHvsJnLVXE3Juq46e4E1-62">
          <mxGeometry x="36" width="68" height="22" as="geometry">
            <mxRectangle width="68" height="22" as="alternateBounds" />
          </mxGeometry>
        </mxCell>
        <mxCell id="qHvsJnLVXE3Juq46e4E1-65" value="HALL" style="shape=table;startSize=25;container=1;collapsible=0;childLayout=tableLayout;fixedRows=1;rowLines=1;fontStyle=1;align=center;resizeLast=1;" vertex="1" parent="1">
          <mxGeometry x="366" y="476" width="115" height="113" as="geometry" />
        </mxCell>
        <mxCell id="qHvsJnLVXE3Juq46e4E1-66" style="shape=tableRow;horizontal=0;startSize=0;swimlaneHead=0;swimlaneBody=0;fillColor=none;collapsible=0;dropTarget=0;points=[[0,0.5],[1,0.5]];portConstraint=eastwest;top=0;left=0;right=0;bottom=0;" vertex="1" parent="qHvsJnLVXE3Juq46e4E1-65">
          <mxGeometry y="25" width="115" height="22" as="geometry" />
        </mxCell>
        <mxCell id="qHvsJnLVXE3Juq46e4E1-67" value="int" style="shape=partialRectangle;connectable=0;fillColor=none;top=0;left=0;bottom=0;right=0;align=left;spacingLeft=2;overflow=hidden;fontSize=11;" vertex="1" parent="qHvsJnLVXE3Juq46e4E1-66">
          <mxGeometry width="36" height="22" as="geometry">
            <mxRectangle width="36" height="22" as="alternateBounds" />
          </mxGeometry>
        </mxCell>
        <mxCell id="qHvsJnLVXE3Juq46e4E1-68" value="hall_ID" style="shape=partialRectangle;connectable=0;fillColor=none;top=0;left=0;bottom=0;right=0;align=left;spacingLeft=2;overflow=hidden;fontSize=11;" vertex="1" parent="qHvsJnLVXE3Juq46e4E1-66">
          <mxGeometry x="36" width="79" height="22" as="geometry">
            <mxRectangle width="79" height="22" as="alternateBounds" />
          </mxGeometry>
        </mxCell>
        <mxCell id="qHvsJnLVXE3Juq46e4E1-69" style="shape=tableRow;horizontal=0;startSize=0;swimlaneHead=0;swimlaneBody=0;fillColor=none;collapsible=0;dropTarget=0;points=[[0,0.5],[1,0.5]];portConstraint=eastwest;top=0;left=0;right=0;bottom=0;" vertex="1" parent="qHvsJnLVXE3Juq46e4E1-65">
          <mxGeometry y="47" width="115" height="22" as="geometry" />
        </mxCell>
        <mxCell id="qHvsJnLVXE3Juq46e4E1-70" value="string" style="shape=partialRectangle;connectable=0;fillColor=none;top=0;left=0;bottom=0;right=0;align=left;spacingLeft=2;overflow=hidden;fontSize=11;" vertex="1" parent="qHvsJnLVXE3Juq46e4E1-69">
          <mxGeometry width="36" height="22" as="geometry">
            <mxRectangle width="36" height="22" as="alternateBounds" />
          </mxGeometry>
        </mxCell>
        <mxCell id="qHvsJnLVXE3Juq46e4E1-71" value="mode" style="shape=partialRectangle;connectable=0;fillColor=none;top=0;left=0;bottom=0;right=0;align=left;spacingLeft=2;overflow=hidden;fontSize=11;" vertex="1" parent="qHvsJnLVXE3Juq46e4E1-69">
          <mxGeometry x="36" width="79" height="22" as="geometry">
            <mxRectangle width="79" height="22" as="alternateBounds" />
          </mxGeometry>
        </mxCell>
        <mxCell id="qHvsJnLVXE3Juq46e4E1-72" style="shape=tableRow;horizontal=0;startSize=0;swimlaneHead=0;swimlaneBody=0;fillColor=none;collapsible=0;dropTarget=0;points=[[0,0.5],[1,0.5]];portConstraint=eastwest;top=0;left=0;right=0;bottom=0;" vertex="1" parent="qHvsJnLVXE3Juq46e4E1-65">
          <mxGeometry y="69" width="115" height="22" as="geometry" />
        </mxCell>
        <mxCell id="qHvsJnLVXE3Juq46e4E1-73" value="int" style="shape=partialRectangle;connectable=0;fillColor=none;top=0;left=0;bottom=0;right=0;align=left;spacingLeft=2;overflow=hidden;fontSize=11;" vertex="1" parent="qHvsJnLVXE3Juq46e4E1-72">
          <mxGeometry width="36" height="22" as="geometry">
            <mxRectangle width="36" height="22" as="alternateBounds" />
          </mxGeometry>
        </mxCell>
        <mxCell id="qHvsJnLVXE3Juq46e4E1-74" value="capacity" style="shape=partialRectangle;connectable=0;fillColor=none;top=0;left=0;bottom=0;right=0;align=left;spacingLeft=2;overflow=hidden;fontSize=11;" vertex="1" parent="qHvsJnLVXE3Juq46e4E1-72">
          <mxGeometry x="36" width="79" height="22" as="geometry">
            <mxRectangle width="79" height="22" as="alternateBounds" />
          </mxGeometry>
        </mxCell>
        <mxCell id="qHvsJnLVXE3Juq46e4E1-75" style="shape=tableRow;horizontal=0;startSize=0;swimlaneHead=0;swimlaneBody=0;fillColor=none;collapsible=0;dropTarget=0;points=[[0,0.5],[1,0.5]];portConstraint=eastwest;top=0;left=0;right=0;bottom=0;" vertex="1" parent="qHvsJnLVXE3Juq46e4E1-65">
          <mxGeometry y="91" width="115" height="22" as="geometry" />
        </mxCell>
        <mxCell id="qHvsJnLVXE3Juq46e4E1-76" value="string" style="shape=partialRectangle;connectable=0;fillColor=none;top=0;left=0;bottom=0;right=0;align=left;spacingLeft=2;overflow=hidden;fontSize=11;" vertex="1" parent="qHvsJnLVXE3Juq46e4E1-75">
          <mxGeometry width="36" height="22" as="geometry">
            <mxRectangle width="36" height="22" as="alternateBounds" />
          </mxGeometry>
        </mxCell>
        <mxCell id="qHvsJnLVXE3Juq46e4E1-77" value="location" style="shape=partialRectangle;connectable=0;fillColor=none;top=0;left=0;bottom=0;right=0;align=left;spacingLeft=2;overflow=hidden;fontSize=11;" vertex="1" parent="qHvsJnLVXE3Juq46e4E1-75">
          <mxGeometry x="36" width="79" height="22" as="geometry">
            <mxRectangle width="79" height="22" as="alternateBounds" />
          </mxGeometry>
        </mxCell>
        <mxCell id="qHvsJnLVXE3Juq46e4E1-78" value="SCHEDULE" style="shape=table;startSize=25;container=1;collapsible=0;childLayout=tableLayout;fixedRows=1;rowLines=1;fontStyle=1;align=center;resizeLast=1;" vertex="1" parent="1">
          <mxGeometry x="358" y="721" width="130" height="179" as="geometry" />
        </mxCell>
        <mxCell id="qHvsJnLVXE3Juq46e4E1-79" style="shape=tableRow;horizontal=0;startSize=0;swimlaneHead=0;swimlaneBody=0;fillColor=none;collapsible=0;dropTarget=0;points=[[0,0.5],[1,0.5]];portConstraint=eastwest;top=0;left=0;right=0;bottom=0;" vertex="1" parent="qHvsJnLVXE3Juq46e4E1-78">
          <mxGeometry y="25" width="130" height="22" as="geometry" />
        </mxCell>
        <mxCell id="qHvsJnLVXE3Juq46e4E1-80" value="int" style="shape=partialRectangle;connectable=0;fillColor=none;top=0;left=0;bottom=0;right=0;align=left;spacingLeft=2;overflow=hidden;fontSize=11;" vertex="1" parent="qHvsJnLVXE3Juq46e4E1-79">
          <mxGeometry width="30" height="22" as="geometry">
            <mxRectangle width="30" height="22" as="alternateBounds" />
          </mxGeometry>
        </mxCell>
        <mxCell id="qHvsJnLVXE3Juq46e4E1-81" value="schedule_ID" style="shape=partialRectangle;connectable=0;fillColor=none;top=0;left=0;bottom=0;right=0;align=left;spacingLeft=2;overflow=hidden;fontSize=11;" vertex="1" parent="qHvsJnLVXE3Juq46e4E1-79">
          <mxGeometry x="30" width="100" height="22" as="geometry">
            <mxRectangle width="100" height="22" as="alternateBounds" />
          </mxGeometry>
        </mxCell>
        <mxCell id="qHvsJnLVXE3Juq46e4E1-82" style="shape=tableRow;horizontal=0;startSize=0;swimlaneHead=0;swimlaneBody=0;fillColor=none;collapsible=0;dropTarget=0;points=[[0,0.5],[1,0.5]];portConstraint=eastwest;top=0;left=0;right=0;bottom=0;" vertex="1" parent="qHvsJnLVXE3Juq46e4E1-78">
          <mxGeometry y="47" width="130" height="22" as="geometry" />
        </mxCell>
        <mxCell id="qHvsJnLVXE3Juq46e4E1-83" value="date" style="shape=partialRectangle;connectable=0;fillColor=none;top=0;left=0;bottom=0;right=0;align=left;spacingLeft=2;overflow=hidden;fontSize=11;" vertex="1" parent="qHvsJnLVXE3Juq46e4E1-82">
          <mxGeometry width="30" height="22" as="geometry">
            <mxRectangle width="30" height="22" as="alternateBounds" />
          </mxGeometry>
        </mxCell>
        <mxCell id="qHvsJnLVXE3Juq46e4E1-84" value="date" style="shape=partialRectangle;connectable=0;fillColor=none;top=0;left=0;bottom=0;right=0;align=left;spacingLeft=2;overflow=hidden;fontSize=11;" vertex="1" parent="qHvsJnLVXE3Juq46e4E1-82">
          <mxGeometry x="30" width="100" height="22" as="geometry">
            <mxRectangle width="100" height="22" as="alternateBounds" />
          </mxGeometry>
        </mxCell>
        <mxCell id="qHvsJnLVXE3Juq46e4E1-85" style="shape=tableRow;horizontal=0;startSize=0;swimlaneHead=0;swimlaneBody=0;fillColor=none;collapsible=0;dropTarget=0;points=[[0,0.5],[1,0.5]];portConstraint=eastwest;top=0;left=0;right=0;bottom=0;" vertex="1" parent="qHvsJnLVXE3Juq46e4E1-78">
          <mxGeometry y="69" width="130" height="22" as="geometry" />
        </mxCell>
        <mxCell id="qHvsJnLVXE3Juq46e4E1-86" value="time" style="shape=partialRectangle;connectable=0;fillColor=none;top=0;left=0;bottom=0;right=0;align=left;spacingLeft=2;overflow=hidden;fontSize=11;" vertex="1" parent="qHvsJnLVXE3Juq46e4E1-85">
          <mxGeometry width="30" height="22" as="geometry">
            <mxRectangle width="30" height="22" as="alternateBounds" />
          </mxGeometry>
        </mxCell>
        <mxCell id="qHvsJnLVXE3Juq46e4E1-87" value="time" style="shape=partialRectangle;connectable=0;fillColor=none;top=0;left=0;bottom=0;right=0;align=left;spacingLeft=2;overflow=hidden;fontSize=11;" vertex="1" parent="qHvsJnLVXE3Juq46e4E1-85">
          <mxGeometry x="30" width="100" height="22" as="geometry">
            <mxRectangle width="100" height="22" as="alternateBounds" />
          </mxGeometry>
        </mxCell>
        <mxCell id="qHvsJnLVXE3Juq46e4E1-88" style="shape=tableRow;horizontal=0;startSize=0;swimlaneHead=0;swimlaneBody=0;fillColor=none;collapsible=0;dropTarget=0;points=[[0,0.5],[1,0.5]];portConstraint=eastwest;top=0;left=0;right=0;bottom=0;" vertex="1" parent="qHvsJnLVXE3Juq46e4E1-78">
          <mxGeometry y="91" width="130" height="22" as="geometry" />
        </mxCell>
        <mxCell id="qHvsJnLVXE3Juq46e4E1-89" value="float" style="shape=partialRectangle;connectable=0;fillColor=none;top=0;left=0;bottom=0;right=0;align=left;spacingLeft=2;overflow=hidden;fontSize=11;" vertex="1" parent="qHvsJnLVXE3Juq46e4E1-88">
          <mxGeometry width="30" height="22" as="geometry">
            <mxRectangle width="30" height="22" as="alternateBounds" />
          </mxGeometry>
        </mxCell>
        <mxCell id="qHvsJnLVXE3Juq46e4E1-90" value="price" style="shape=partialRectangle;connectable=0;fillColor=none;top=0;left=0;bottom=0;right=0;align=left;spacingLeft=2;overflow=hidden;fontSize=11;" vertex="1" parent="qHvsJnLVXE3Juq46e4E1-88">
          <mxGeometry x="30" width="100" height="22" as="geometry">
            <mxRectangle width="100" height="22" as="alternateBounds" />
          </mxGeometry>
        </mxCell>
        <mxCell id="qHvsJnLVXE3Juq46e4E1-91" style="shape=tableRow;horizontal=0;startSize=0;swimlaneHead=0;swimlaneBody=0;fillColor=none;collapsible=0;dropTarget=0;points=[[0,0.5],[1,0.5]];portConstraint=eastwest;top=0;left=0;right=0;bottom=0;" vertex="1" parent="qHvsJnLVXE3Juq46e4E1-78">
          <mxGeometry y="113" width="130" height="22" as="geometry" />
        </mxCell>
        <mxCell id="qHvsJnLVXE3Juq46e4E1-92" value="int" style="shape=partialRectangle;connectable=0;fillColor=none;top=0;left=0;bottom=0;right=0;align=left;spacingLeft=2;overflow=hidden;fontSize=11;" vertex="1" parent="qHvsJnLVXE3Juq46e4E1-91">
          <mxGeometry width="30" height="22" as="geometry">
            <mxRectangle width="30" height="22" as="alternateBounds" />
          </mxGeometry>
        </mxCell>
        <mxCell id="qHvsJnLVXE3Juq46e4E1-93" value="number" style="shape=partialRectangle;connectable=0;fillColor=none;top=0;left=0;bottom=0;right=0;align=left;spacingLeft=2;overflow=hidden;fontSize=11;" vertex="1" parent="qHvsJnLVXE3Juq46e4E1-91">
          <mxGeometry x="30" width="100" height="22" as="geometry">
            <mxRectangle width="100" height="22" as="alternateBounds" />
          </mxGeometry>
        </mxCell>
        <mxCell id="qHvsJnLVXE3Juq46e4E1-94" style="shape=tableRow;horizontal=0;startSize=0;swimlaneHead=0;swimlaneBody=0;fillColor=none;collapsible=0;dropTarget=0;points=[[0,0.5],[1,0.5]];portConstraint=eastwest;top=0;left=0;right=0;bottom=0;" vertex="1" parent="qHvsJnLVXE3Juq46e4E1-78">
          <mxGeometry y="135" width="130" height="22" as="geometry" />
        </mxCell>
        <mxCell id="qHvsJnLVXE3Juq46e4E1-95" value="int" style="shape=partialRectangle;connectable=0;fillColor=none;top=0;left=0;bottom=0;right=0;align=left;spacingLeft=2;overflow=hidden;fontSize=11;" vertex="1" parent="qHvsJnLVXE3Juq46e4E1-94">
          <mxGeometry width="30" height="22" as="geometry">
            <mxRectangle width="30" height="22" as="alternateBounds" />
          </mxGeometry>
        </mxCell>
        <mxCell id="qHvsJnLVXE3Juq46e4E1-96" value="movie_ID" style="shape=partialRectangle;connectable=0;fillColor=none;top=0;left=0;bottom=0;right=0;align=left;spacingLeft=2;overflow=hidden;fontSize=11;" vertex="1" parent="qHvsJnLVXE3Juq46e4E1-94">
          <mxGeometry x="30" width="100" height="22" as="geometry">
            <mxRectangle width="100" height="22" as="alternateBounds" />
          </mxGeometry>
        </mxCell>
        <mxCell id="qHvsJnLVXE3Juq46e4E1-97" style="shape=tableRow;horizontal=0;startSize=0;swimlaneHead=0;swimlaneBody=0;fillColor=none;collapsible=0;dropTarget=0;points=[[0,0.5],[1,0.5]];portConstraint=eastwest;top=0;left=0;right=0;bottom=0;" vertex="1" parent="qHvsJnLVXE3Juq46e4E1-78">
          <mxGeometry y="157" width="130" height="22" as="geometry" />
        </mxCell>
        <mxCell id="qHvsJnLVXE3Juq46e4E1-98" value="int" style="shape=partialRectangle;connectable=0;fillColor=none;top=0;left=0;bottom=0;right=0;align=left;spacingLeft=2;overflow=hidden;fontSize=11;" vertex="1" parent="qHvsJnLVXE3Juq46e4E1-97">
          <mxGeometry width="30" height="22" as="geometry">
            <mxRectangle width="30" height="22" as="alternateBounds" />
          </mxGeometry>
        </mxCell>
        <mxCell id="qHvsJnLVXE3Juq46e4E1-99" value="hall_ID" style="shape=partialRectangle;connectable=0;fillColor=none;top=0;left=0;bottom=0;right=0;align=left;spacingLeft=2;overflow=hidden;fontSize=11;" vertex="1" parent="qHvsJnLVXE3Juq46e4E1-97">
          <mxGeometry x="30" width="100" height="22" as="geometry">
            <mxRectangle width="100" height="22" as="alternateBounds" />
          </mxGeometry>
        </mxCell>
        <mxCell id="qHvsJnLVXE3Juq46e4E1-100" value="TICKET" style="shape=table;startSize=25;container=1;collapsible=0;childLayout=tableLayout;fixedRows=1;rowLines=1;fontStyle=1;align=center;resizeLast=1;" vertex="1" parent="1">
          <mxGeometry x="580" y="476" width="136" height="113" as="geometry" />
        </mxCell>
        <mxCell id="qHvsJnLVXE3Juq46e4E1-101" style="shape=tableRow;horizontal=0;startSize=0;swimlaneHead=0;swimlaneBody=0;fillColor=none;collapsible=0;dropTarget=0;points=[[0,0.5],[1,0.5]];portConstraint=eastwest;top=0;left=0;right=0;bottom=0;" vertex="1" parent="qHvsJnLVXE3Juq46e4E1-100">
          <mxGeometry y="25" width="136" height="22" as="geometry" />
        </mxCell>
        <mxCell id="qHvsJnLVXE3Juq46e4E1-102" value="int" style="shape=partialRectangle;connectable=0;fillColor=none;top=0;left=0;bottom=0;right=0;align=left;spacingLeft=2;overflow=hidden;fontSize=11;" vertex="1" parent="qHvsJnLVXE3Juq46e4E1-101">
          <mxGeometry width="36" height="22" as="geometry">
            <mxRectangle width="36" height="22" as="alternateBounds" />
          </mxGeometry>
        </mxCell>
        <mxCell id="qHvsJnLVXE3Juq46e4E1-103" value="ticket_ID" style="shape=partialRectangle;connectable=0;fillColor=none;top=0;left=0;bottom=0;right=0;align=left;spacingLeft=2;overflow=hidden;fontSize=11;" vertex="1" parent="qHvsJnLVXE3Juq46e4E1-101">
          <mxGeometry x="36" width="100" height="22" as="geometry">
            <mxRectangle width="100" height="22" as="alternateBounds" />
          </mxGeometry>
        </mxCell>
        <mxCell id="qHvsJnLVXE3Juq46e4E1-104" style="shape=tableRow;horizontal=0;startSize=0;swimlaneHead=0;swimlaneBody=0;fillColor=none;collapsible=0;dropTarget=0;points=[[0,0.5],[1,0.5]];portConstraint=eastwest;top=0;left=0;right=0;bottom=0;" vertex="1" parent="qHvsJnLVXE3Juq46e4E1-100">
          <mxGeometry y="47" width="136" height="22" as="geometry" />
        </mxCell>
        <mxCell id="qHvsJnLVXE3Juq46e4E1-105" value="string" style="shape=partialRectangle;connectable=0;fillColor=none;top=0;left=0;bottom=0;right=0;align=left;spacingLeft=2;overflow=hidden;fontSize=11;" vertex="1" parent="qHvsJnLVXE3Juq46e4E1-104">
          <mxGeometry width="36" height="22" as="geometry">
            <mxRectangle width="36" height="22" as="alternateBounds" />
          </mxGeometry>
        </mxCell>
        <mxCell id="qHvsJnLVXE3Juq46e4E1-106" value="seat_num" style="shape=partialRectangle;connectable=0;fillColor=none;top=0;left=0;bottom=0;right=0;align=left;spacingLeft=2;overflow=hidden;fontSize=11;" vertex="1" parent="qHvsJnLVXE3Juq46e4E1-104">
          <mxGeometry x="36" width="100" height="22" as="geometry">
            <mxRectangle width="100" height="22" as="alternateBounds" />
          </mxGeometry>
        </mxCell>
        <mxCell id="qHvsJnLVXE3Juq46e4E1-107" style="shape=tableRow;horizontal=0;startSize=0;swimlaneHead=0;swimlaneBody=0;fillColor=none;collapsible=0;dropTarget=0;points=[[0,0.5],[1,0.5]];portConstraint=eastwest;top=0;left=0;right=0;bottom=0;" vertex="1" parent="qHvsJnLVXE3Juq46e4E1-100">
          <mxGeometry y="69" width="136" height="22" as="geometry" />
        </mxCell>
        <mxCell id="qHvsJnLVXE3Juq46e4E1-108" value="int" style="shape=partialRectangle;connectable=0;fillColor=none;top=0;left=0;bottom=0;right=0;align=left;spacingLeft=2;overflow=hidden;fontSize=11;" vertex="1" parent="qHvsJnLVXE3Juq46e4E1-107">
          <mxGeometry width="36" height="22" as="geometry">
            <mxRectangle width="36" height="22" as="alternateBounds" />
          </mxGeometry>
        </mxCell>
        <mxCell id="qHvsJnLVXE3Juq46e4E1-109" value="c_ID" style="shape=partialRectangle;connectable=0;fillColor=none;top=0;left=0;bottom=0;right=0;align=left;spacingLeft=2;overflow=hidden;fontSize=11;" vertex="1" parent="qHvsJnLVXE3Juq46e4E1-107">
          <mxGeometry x="36" width="100" height="22" as="geometry">
            <mxRectangle width="100" height="22" as="alternateBounds" />
          </mxGeometry>
        </mxCell>
        <mxCell id="qHvsJnLVXE3Juq46e4E1-110" style="shape=tableRow;horizontal=0;startSize=0;swimlaneHead=0;swimlaneBody=0;fillColor=none;collapsible=0;dropTarget=0;points=[[0,0.5],[1,0.5]];portConstraint=eastwest;top=0;left=0;right=0;bottom=0;" vertex="1" parent="qHvsJnLVXE3Juq46e4E1-100">
          <mxGeometry y="91" width="136" height="22" as="geometry" />
        </mxCell>
        <mxCell id="qHvsJnLVXE3Juq46e4E1-111" value="int" style="shape=partialRectangle;connectable=0;fillColor=none;top=0;left=0;bottom=0;right=0;align=left;spacingLeft=2;overflow=hidden;fontSize=11;" vertex="1" parent="qHvsJnLVXE3Juq46e4E1-110">
          <mxGeometry width="36" height="22" as="geometry">
            <mxRectangle width="36" height="22" as="alternateBounds" />
          </mxGeometry>
        </mxCell>
        <mxCell id="qHvsJnLVXE3Juq46e4E1-112" value="schedule_ID" style="shape=partialRectangle;connectable=0;fillColor=none;top=0;left=0;bottom=0;right=0;align=left;spacingLeft=2;overflow=hidden;fontSize=11;" vertex="1" parent="qHvsJnLVXE3Juq46e4E1-110">
          <mxGeometry x="36" width="100" height="22" as="geometry">
            <mxRectangle width="100" height="22" as="alternateBounds" />
          </mxGeometry>
        </mxCell>
        <mxCell id="qHvsJnLVXE3Juq46e4E1-113" value="放映" style="curved=1;startArrow=ERmandOne;startSize=10;;endArrow=ERmany;endSize=10;;exitX=0.5;exitY=1;entryX=0;entryY=0.28;rounded=0;" edge="1" parent="1" source="qHvsJnLVXE3Juq46e4E1-33" target="qHvsJnLVXE3Juq46e4E1-78">
          <mxGeometry relative="1" as="geometry">
            <Array as="points">
              <mxPoint x="196" y="671" />
            </Array>
          </mxGeometry>
        </mxCell>
        <mxCell id="qHvsJnLVXE3Juq46e4E1-114" value="位于" style="curved=1;startArrow=ERmandOne;startSize=10;;endArrow=ERmany;endSize=10;;exitX=0.5;exitY=0.99;entryX=0.5;entryY=0;rounded=0;" edge="1" parent="1" source="qHvsJnLVXE3Juq46e4E1-65" target="qHvsJnLVXE3Juq46e4E1-78">
          <mxGeometry relative="1" as="geometry">
            <Array as="points" />
          </mxGeometry>
        </mxCell>
        <mxCell id="qHvsJnLVXE3Juq46e4E1-115" value="购买" style="curved=1;startArrow=ERmandOne;startSize=10;;endArrow=ERmany;endSize=10;;exitX=0.5;exitY=1;entryX=0.5;entryY=0;rounded=0;" edge="1" parent="1" source="qHvsJnLVXE3Juq46e4E1-55" target="qHvsJnLVXE3Juq46e4E1-100">
          <mxGeometry relative="1" as="geometry">
            <Array as="points" />
          </mxGeometry>
        </mxCell>
        <mxCell id="qHvsJnLVXE3Juq46e4E1-116" value="属于" style="curved=1;startArrow=ERmany;startSize=10;;endArrow=ERmandOne;endSize=10;;exitX=0.5;exitY=0.99;entryX=1;entryY=0.28;rounded=0;" edge="1" parent="1" source="qHvsJnLVXE3Juq46e4E1-100" target="qHvsJnLVXE3Juq46e4E1-78">
          <mxGeometry relative="1" as="geometry">
            <Array as="points">
              <mxPoint x="648" y="671" />
            </Array>
          </mxGeometry>
        </mxCell>
      </root>
    </mxGraphModel>
  </diagram>
</mxfile>
